<svg xmlns="http://www.w3.org/2000/svg" viewBox="0 0 128 128" fill="none" role="img" aria-label="Still Wet" shape-rendering="geometricPrecision">
  <title>Still Wet</title>
  <path fill="#00E5FF" d="M59.2,94.33c-1.66,16.44-14.08,27.62-30.55,26.34C12.18,119.39,5.36,105.49,6.2,92.33c0.89-14.08,7.68-20.35,12-29c6-12,3.92-21.06,5.16-25.9c0.54-2.11,3.09-2.93,4.74-1.51C37.84,44.27,61.68,69.78,59.2,94.33z"/>
  <path fill="#FFE500" d="M118.97,92.21c5.69,10.66,3.03,25.35-8.09,29.66c-16.67,6.46-27.67-5.54-29.67-25.54c-0.76-7.64-6.11-19.46-7.34-22.9c-0.53-1.5,0.66-3.02,2.23-2.83C85.33,71.75,110.47,76.3,118.97,92.21z"/>
  <path fill="#FF1493" d="M107.28,11.49c13.56,9.43,17.84,27.88,8.43,41.46c-6.51,9.38-24.41,11.5-35.51,4.38c-11.88-7.62-15.13-15.55-22-24C51.56,25.17,44,20.59,40.37,17.15c-1.58-1.5-1.06-4.13,0.98-4.88C53.38,7.81,87.02-2.6,107.28,11.49z"/>
</svg>
